<?xml version="1.0" standalone="no"?>
<!DOCTYPE svg PUBLIC "-//W3C//DTD SVG 20010904//EN"
 "http://www.w3.org/TR/2001/REC-SVG-20010904/DTD/svg10.dtd">
<svg version="1.0" xmlns="http://www.w3.org/2000/svg"
 width="96.000000pt" height="96.000000pt" viewBox="0 0 96.000000 96.000000"
 preserveAspectRatio="xMidYMid meet">
<metadata>
Created by potrace 1.14, written by Peter Selinger 2001-2017
</metadata>
<g transform="translate(0.000000,96.000000) scale(0.100000,-0.100000)"
fill="#000000" stroke="none">
<path d="M0 693 c0 -12 9 -29 21 -37 12 -8 19 -19 15 -24 -3 -5 4 -20 17 -34
12 -13 22 -29 23 -36 2 -25 5 -28 35 -46 17 -10 28 -21 25 -24 -8 -8 24 -42
40 -42 7 0 16 -9 19 -20 6 -19 22 -25 53 -21 9 2 12 -10 11 -38 -3 -46 14 -71
47 -71 21 0 74 44 74 62 0 5 11 8 23 8 13 0 32 9 41 19 20 22 38 22 64 -2 10
-9 27 -17 38 -17 10 0 32 -16 47 -35 20 -25 36 -35 57 -35 34 0 44 22 43 90 0
25 1 37 4 28 2 -10 9 -18 14 -18 20 0 49 21 49 35 0 8 7 15 16 15 18 0 44 23
44 39 0 6 11 18 25 27 13 9 27 25 31 37 3 11 15 30 25 41 11 11 17 26 15 33
-3 7 6 21 19 32 21 16 34 41 21 41 -2 0 -32 -13 -67 -29 -35 -16 -82 -32 -103
-35 -21 -4 -56 -16 -77 -28 -36 -20 -43 -30 -40 -50 0 -4 -6 -5 -14 -2 -8 4
-15 12 -15 20 0 23 -72 18 -93 -6 -13 -15 -29 -20 -70 -20 -41 0 -58 5 -72 20
-27 29 -74 26 -104 -7 -17 -20 -22 -22 -17 -9 12 34 -36 65 -131 86 -50 12
-134 49 -145 64 -4 6 -8 1 -8 -11z"/>
</g>
</svg>
